<?xml version="1.0" encoding="utf-8"?>
<!-- Generator: Adobe Illustrator 26.1.0, SVG Export Plug-In . SVG Version: 6.00 Build 0)  -->
<svg version="1.1" id="Layer_1" xmlns="http://www.w3.org/2000/svg" xmlns:xlink="http://www.w3.org/1999/xlink" x="0px" y="0px"
	 viewBox="0 0 51.4 54.2" style="enable-background:new 0 0 51.4 54.2;" xml:space="preserve">
<style type="text/css">
	.st0{fill:#B4282E;}
</style>
<g>
	<path class="st0" d="M34.3,47.7c-0.8,1.5-1.6,2.6-2.6,3.5c-1.8,1.6-3.8,1.8-5.9,0.6c-1.1-0.6-2-1.5-2.9-2.4
		c-0.9-0.9-1.7-1.9-2.6-2.7c-1-1-2.1-1.9-3.2-2.9c-0.3-0.3-0.8-0.4-1.2-0.5c-2-0.5-4-0.8-6-1.2c-1.2-0.2-2.4-0.3-3.6-0.7
		c-1-0.3-2-0.7-2.8-1.4c-1.2-1-1.7-2.3-1.6-3.8c0.1-1.3,0.5-2.5,1-3.7c1.2-2.7,3.3-4.7,6-5.8c1.3-0.5,2.6-0.9,4-1.4
		c2.6-0.9,5.2-1.8,7.6-2.9c1-0.4,1.9-0.9,3-1.1c1.9-0.4,3.7,0,5.3,1.1c1.7,1.2,2.7,2.9,3,5c0.5,2.8,1.2,5.6,2,8.3
		c0.3,1.2,0.7,2.3,1,3.5c0.6,2.2,0.7,4.4,0.1,6.6C34.8,46.6,34.5,47.3,34.3,47.7z"/>
	<path class="st0" d="M32.4,13c0.8-1.5,2-2.8,3.5-3.7c1-0.6,2.1-1,3.3-0.9c2.1,0,4,1.4,4.8,3.4c0.8,2,0.7,4.1-0.2,6.1
		c-0.6,1.6-1.6,3-2.9,4c-1.1,0.8-2.3,1.4-3.7,1.5c-1.5,0.1-2.8-0.3-3.9-1.2c-0.5-0.5-1-1-1.3-1.7c-0.9-1.9-0.9-3.8-0.3-5.8
		C31.9,14.1,32.2,13.5,32.4,13z"/>
	<path class="st0" d="M38,28.7c1-1.9,2.4-3.3,4.4-4.1c1.3-0.5,2.6-0.7,3.9-0.2c1.1,0.4,2,1,2.6,2c1,1.5,1.2,3.1,1,4.8
		c-0.3,2.4-1.3,4.4-3.1,6c-1.3,1.2-2.8,1.9-4.6,2c-1,0-1.9-0.3-2.7-0.8c-1.7-1-2.4-2.6-2.7-4.5C36.7,32,37.2,30.3,38,28.7z"/>
	<path class="st0" d="M4.9,12.7c0.7-1.3,1.6-2.4,2.8-3.3c0.7-0.5,1.5-0.9,2.4-1.1c3-0.8,5.8,0.9,6.6,3.9c0.5,2.1,0.3,4-0.7,5.9
		c-0.6,1.3-1.5,2.5-2.6,3.4c-1.3,1-2.7,1.6-4.3,1.6c-2.1,0-4-1.4-4.7-3.3c-0.8-2.1-0.7-4.1,0.1-6.2C4.6,13.3,4.8,13,4.9,12.7z"/>
	<path class="st0" d="M30.7,11.8c-1,1.9-2.3,3.3-4,4.2c-1.2,0.6-2.5,0.9-3.8,0.6c-2.1-0.4-3.5-1.8-4.1-3.8c-0.6-1.9-0.4-3.8,0.4-5.6
		c0.6-1.5,1.5-2.8,2.7-3.8c1.1-0.9,2.4-1.5,3.8-1.7c0.9-0.1,1.7,0,2.5,0.3c1.9,0.8,2.9,2.2,3.3,4.1C32,8.2,31.6,10.2,30.7,11.8z"/>
</g>
</svg>
