<?xml version="1.0" encoding="utf-8"?>
<!-- Generator: Adobe Illustrator 26.1.0, SVG Export Plug-In . SVG Version: 6.00 Build 0)  -->
<svg version="1.1" id="Layer_1" xmlns="http://www.w3.org/2000/svg" xmlns:xlink="http://www.w3.org/1999/xlink" x="0px" y="0px"
	 viewBox="0 0 679.6 456" style="enable-background:new 0 0 679.6 456;" xml:space="preserve">
<style type="text/css">
	.st0{fill:none;stroke:#333333;stroke-miterlimit:10;}
</style>
<path class="st0" d="M7.1,393.5c0,0,15-20.6,55.3-21.2s78.1,0.3,105,5.6c26.9,5.3,51.2,9.4,69.7,7.8s26.9,0,31.6,13.1
	c4.7,13.1,4.1,21.6-11.2,20.6c-15.3-0.9-15-8.1-7.2-13.4c7.8-5.3,24.1-12.9,26.9-10.2c2.8,2.7,3.1,24.3,7.2,29s8.4,10.3,30.9,11.6
	c22.5,1.2,37.5,4.1,43.4,4.4c5.9,0.3,10.3-1.2,9.4-8.4c-0.9-7.2-3.7-15.6-23.4-15.9c-19.7-0.3-26.9-1.2-28.4-3.7
	c-1.6-2.5,4.1-3.7,13.7-8.1c9.7-4.4,38.1-19.7,38.2-45.3c0.2-25.6-10.8-42.8-40.1-44.1c-29.4-1.2-49.7,15.6-56.9,35.9
	s5,23.7,10,21.6c5-2.2,12.5-4.1,9.4-27.2c-3.1-23.1-5.9-50.3,6.2-73.1c12.2-22.8,41.2-78.4,53.1-89.4c11.9-10.9,12.5-6.9,16.2-1.6
	c3.7,5.3,10.9,30,8.4,40c-2.5,10-6.9,8.1-11.2,0.6c-4.4-7.5-2.8-50.9,0-64.1c2.8-13.1,3.1-24.7,16.6-40.6c13.4-15.9,9.1-30,9.4-38.7
	c0.3-8.7,3.1-30,5.6-40s-4.4-14.7-11.2-9.4s-21.6,24.7-27.2,38.4s-1.6,15.6,3.1,16.6c4.7,0.9,11.2,4.4,15.3,11.2
	c4.1,6.9,2.8,10.6,9.1,10c6.2-0.6,11.6-3.7,16.6,2.8c5,6.6,11.9,36.9,20.6,46.6c8.7,9.7,26.6,12.2,38.1-2.5
	c11.6-14.7,14.1-37.5,14.1-50.6s8.4-22.5,13.1-26.6c4.7-4.1,7.2-2.8,10.6,0s5.6,3.7,10,0.3c4.4-3.4,2.5-5.9,0-13.4
	c-2.5-7.5-1.6-22.8-10-31.9S474,11,463.4,9.4C452.7,7.9,444,9.1,434,12.6c-10,3.4-25.6,9.7-25,12.8s9.7,0,18.7-1.2
	c9.1-1.2,24.4-4.1,35.3,2.5s20,29.4,23.7,40.3c3.7,10.9,2.8,25.6-0.9,41.6c-3.7,15.9-6.9,28.1,2.8,45.9s14.4,49.7,4.4,75.6
	s-21.9,53.4-30,65.6c-8.1,12.2-11.2,23.1-10.9,45.3c0.3,22.2,2.8,60.6,1.9,74.7s5.6,20.6,16.6,19.7c10.9-0.9,17.8-8.1,17.2-13.7
	c-0.6-5.6-8.1-6.9-9.1-19.7c-0.9-12.8-1.2-58.4,1.9-85.6c3.1-27.2-7.8-13.4-10.6-8.4s-16.2,25.3-29.4,35.3
	c-13.1,10-18.7,16.6-20.9,7.8c-2.2-8.7-3.4-43.1-8.7-57.5c-5.3-14.4-20.9-11.9-23.1,4.4c-2.2,16.2,7.8,59.7,12.5,86.9
	c4.7,27.2,2.2,55.3,9.4,59.4s17.8,5.9,27.2,0c9.4-5.9,5.9-8.7,2.5-14.4s-10.9-22.5-12.8-43.1c-1.9-20.6,2.8-20.6,13.4-23.4
	c10.6-2.8,19.7-4.7,45.6,4.4c25.9,9.1,63.4,18.7,85.6,17.2c22.2-1.6,34.7-2.5,59.1-14.7c24.4-12.2,33.4-18.4,40.9-17.5"/>
</svg>
