<?xml version="1.0" encoding="utf-8"?>
<!-- Generator: Adobe Illustrator 26.1.0, SVG Export Plug-In . SVG Version: 6.00 Build 0)  -->
<svg version="1.1" id="Layer_1" xmlns="http://www.w3.org/2000/svg" xmlns:xlink="http://www.w3.org/1999/xlink" x="0px" y="0px"
	 viewBox="0 0 399.9 572.6" style="enable-background:new 0 0 399.9 572.6;" xml:space="preserve">
<style type="text/css">
	.st0{fill:none;stroke:#333333;stroke-miterlimit:10;}
</style>
<path class="st0" d="M87,295.1c0,0,0.5,13.8-8.7,31.2c-7.1,13.4-3.6,22.9-2.4,28.8c1.2,5.9,7.9,13.4,20.5,13
	c12.6-0.4,20.9-14.6,24.5-22.9c3.6-8.3,9.5-20.9,2-34.4c-7.5-13.4-24.5-36.4-35.2-36.4s-15.8,2.4-26.5,7.5s-19.8,9.9-20.2,18.2
	c-0.4,8.3-7.5,11.9-16.2,14.2s-12.6,4.6-12.6,14.7c0,10.1,8.2,7.3,12.1,0.2c3.9-7.1-2.3-9.1-6.8-8S7.6,333.8,16,343.9
	s14.8,11.6,25.1,9.6c10.3-2,17.8-6.2,24.4-4.3c6.6,2,17.4,13.5,17.8,25.5c0.4,11.9-5.9,13.2,2.1,34s20.7,37.7,26.5,64.1
	c5.9,26.4,4.5,50.7-20.3,50.7s-11.4-16.4-5.2-20.1c6.2-3.7,10.7,0.2,18.3,1.1s13.9,0.4,26.9-11.8s6.6-13.7,10.7-22.4
	c4.1-8.7,8.7-15.8,22.3-15.3c13.5,0.5,51.1,6.8,64.6,9.8c13.5,3,20.1,8.5,24,17.6c3.9,9.1,9.1,15,18.9,21.5
	c9.8,6.6,24.9,22.6,30.1,29c5.2,6.4,3.7,7.5-1.4,10s-8.9,6.8-8.4,12.6c0.5,5.9,7.5,8.5,14.8,8.5c7.3,0,16.4-4.8,16.7-12.6
	s0.2-15.1,2.3-19.2s1.1-15.3-4.3-19.6c-5.3-4.3-18.7-12.5-19.1-27.1c-0.4-14.6,0.2-36.3-0.7-43.3s-2-14.2-13-23
	c-11-8.8-15.8-15.4-12.1-25.2c3.7-9.8,14.2-16.2,13.5-30.1c-0.7-13.9-12.5-36.9-14.1-47.5c-1.6-10.7-8.2-27.2-10.7-27.4
	c-2.5-0.2-2.8,23,3.9,44.3c6.8,21.4,17.3,37.6,20.8,45.2c3.6,7.7,1.6,15.5-19.1,15c-20.7-0.5-57.5-19.6-79.2-25.6
	s-37.7-13.7-48.1-7.7c-10.3,6.1-14.2,12.3-7.8,12.1c6.4-0.2,22.6-0.9,60.5-23.7c37.9-22.8,42.2-45.8,35.1-59.5
	c-7.1-13.7-23-26.9-53.1-47.5s-44.7-34.4-44.7-57.7s25.2-54.8,91.7-95.3S392.2,9.1,392.2,9.1"/>
</svg>
