<?xml version="1.0" encoding="utf-8"?>
<!-- Generator: Adobe Illustrator 26.1.0, SVG Export Plug-In . SVG Version: 6.00 Build 0)  -->
<svg version="1.1" id="Layer_1" xmlns="http://www.w3.org/2000/svg" xmlns:xlink="http://www.w3.org/1999/xlink" x="0px" y="0px"
	 viewBox="0 0 997.5 298.2" style="enable-background:new 0 0 997.5 298.2;" xml:space="preserve">
<style type="text/css">
	.st0{fill:none;stroke:#333333;stroke-miterlimit:10;}
</style>
<path class="st0" d="M8.1,257.7c25.8,20.8,65.2,23.9,81.6,23.9s28.1-2.5,35.5-8c7.5-5.5,10.3-12.2,9-17.2c-1.3-5-1.3-4.4-3.2-12
	s-3.1-10.7-7.1-15.3s3.7-12.6,10.6-18.3c6.9-5.7,11.7-9.7,11.7-18.3s1.1-17.8,4.2-19.7c0,0,4.2,4.6,5.9,10.3
	c1.7,5.7,3.1,12.2,3.1,12.2s-6.3,1.9-11.7,8.6c-5.4,6.7-9.2,15.7-11.7,23.3s-0.8,11.3,1.1,15.9c1.9,4.6,4.5,11.2,0.6,15.3
	c-3.9,4.1-10.1,5-15.1,2.1c-5-2.9-5-8.6-4.8-14.1s-6.1-11.5-5.4-19.1s3.1-14.1,3.6-32.5s2.3-37.5,9.7-44.7c7.5-7.3,11.3-9.4,8.4-21
	c-2.9-11.7-10.5-27.3-19.3-35.5s-26.6-14.5-38.2-21c-11.7-6.5-15.5-7.8-19.5-15.1c0,0,15.7,5.4,30.8,9.7s31.5,8.8,43.2,19.5
	s16.2,26.4,19.1,36.7c2.9,10.3,3.2,12.4,4.8,11.1c1.5-1.3,6.1-5.9,23.7-4c17.6,1.9,33.6,7.3,54.1,6.1c20.5-1.1,26-10.9,28.2-18.3
	s10-15.9,13.8-19.1c3.8-3.2,5.2,0.2,7.8,1.1c2.7,1,9.7,1.3,9.7-3.1c0-4.4-5.7-8.2-9.4-7.3c-3.6,1-10.3,4-17.4,8.8
	c-7.1,4.8-10.5,2.3-10.3-2.5c0.2-4.8,5.4-11.3,6.5-15.1c1.1-3.8-0.8-6.3-0.8-6.3s-6.6,2.3-8.3,13.2s0.6,23.9-1.1,30.4
	c-1.7,6.5-4.2,11.8-12.6,11.1c-8.4-0.8-8.2-5.2-12-11.5c-3.8-6.3-12.4-13.4-14.5-17.8c-2.1-4.4-6.5-17.4,4.4-25.6
	c10.9-8.2,28-6.9,36.1-6.9s12-2.3,18-4.4c5.9-2.1,14.7-5.5,28.5,0.8c13.8,6.3,22.7,23.3,27.1,41.9c0,0,11.5-7.3,9.7-18
	s-18.9-19.5-35.5-19.9c0,0,8.4,8.2,7.8,19.5c-0.6,11.3,0.4,14.9,7.3,15.1s4.2-11.3-0.4-12.2c-4.6-1-7.6,8.2,2.7,16.2
	s10.3,13,7.1,16.4c-3.2,3.4-9.6,6.7-10.5,2.9c-1-3.8,8.4-6.5,5.9-11.1c-2.5-4.6-10.3-4-15.1-1.3c-4.8,2.7-7.6,7.5-1.7,11.1
	s12.8,1.5,10.3,4.4c-2.5,2.9-7.1,2.3-9.6,2.1c-2.5-0.2-4.4,1-4.8,3.6c0,0,4.2,1.7,11.8-1.3c7.6-3.1,15.7-4.2,20.8,2.7
	c5.2,6.9,2.5,16.4-7.6,20.5s-19.9,1.5-25-4.6s-2.9-15.9-2.9-15.9s-7.6,0-11.8,0.2s-0.4,9.4,1.9,12c2.3,2.7,9.7,9.2,15.5,9.9
	c0,0-5.9,5.9-14,1s-9.4-15.1-17.4-21.2s-12.2-4-14.3-0.4s-0.8,10.1,6.7,9.7c7.5-0.4,12.2-3.6,15.1,4.2s2.5,10.1-2.7,15.9
	s-7.5,8-3.6,13.6s7.8,8.6,7.8,8.6s-11.7,2.5-14,6.3c-2.3,3.8-0.6,5.9,0.6,6.9c1.1,1,3.4,1.3,6.9-0.8c0,0,3.8,15.9,16.4,15.5
	c12.6-0.4,15.5-9.7,12.8-15.9s-8.6,1-8.2,1.5s8.8-3.6,3.8-9.7s-11.5-0.2-11.8,1.5c-0.4,1.7,6.9-4.2,0.2-4.8
	c-6.7-0.6-7.5,5.7-16.1,9.2c-8.6,3.4-11.7,2.1-15.7-1.7c-4-3.8-3.4-2.9-8.4,0c-5,2.9-9.7,6.3-12.8,4.2c-3.1-2.1-5.5-0.6-2.9,1.1
	c2.7,1.7,17.3,9.6,23.7,20.3c6.4,10.7,5.8,17.2,5.5,21.8c-0.3,4.6-2.4,7.1-4.7,4.6c-2.3-2.5-0.3-4.7-0.5-1.8
	c-0.2,2.9-1.3,5.7-3.5,5.8c-2.2,0.2-4.2-1.8-5.1-3.5s1-3.4,0.1,1.8s-6.7,0.6-8.1-1.9s-2.4-7.5-3.1-13c-0.8-5.5-4.2-12.8-19.4-19.8
	s-15-17-17.9-21.2c-2.9-4.1-6.7-7.4-5.9-2.5c0.8,4.9,3,8,4.1,9.1c1.2,1.1,0.8-0.3-2.5-0.3c-3.3-0.1-16.2-3.3-21.6-5.1
	c-5.4-1.8-7.1-3.5-8.8,0.5c-1.8,4,3.6,8.5,4.1,16.9c0.5,8.5-1.9,13-6.5,20.2c-4.7,7.2-3.5,11.9-1.2,15.1s3.8,3.7,5.8,2.6
	c2-1.1,3.5-3.1,2.5-3.2c-0.9-0.1,1.2,6.9,4,7.1c2.8,0.3,5.5-1.9,4.1-5.8c-1.4-3.8-6.3-6.9-3.3-12.4c3-5.5,13.4-6.9,20.3-12.4
	s10.2-9.2,8.4-12.9s-8.5-8-21.8-9.1c-13.2-1.1-15.1-0.4-16.9-0.8s-0.8,0.5-0.8,3.6c-0.1,3.1-0.1,11.3-5.8,21.1s-6.2,15.7-2.8,21.8
	c3.4,6.1,15.8,15.2,23.4,15.2c7.6-0.1,9.6-1.3,9.5-4.2s-3.7-6.8-5.1-9.6c-1.4-2.9-2.4-4.7-0.3-4.6c2,0.1,15.6,1.9,23.6,4.1
	c8,2.3,14.9,5.8,21.5,9.9c6.6,4.1,29.1,12.5,46.3,15.7s33.6,6.1,43.2,7.7s25.8,5,37.1,4.7c11.3-0.3,14.1-3.5,22-9.9
	c8-6.4,9.6-9.6,15.7-9.4s-2.6,1-2.2-6.4c0.4-7.4,4-13.9,3.4-19.5c-0.6-5.6-6.8-28.9-8.2-36.3c-1.4-7.4-4-12.2-2.6-24.7
	c1.4-12.6,1.8-19.1,3.2-15.9c1.4,3.2,4.6,13.5,8.6,16.7c4,3.2,5.6,5,1.6,7c-4,2-3.2,9.4-1.2,17.5s7.8,12.8,0,19.3
	s-13.5,10-13.3,15.1c0.2,5.2,8.6,12.6,5.4,14.1c-3.2,1.6-6.8-3-17.9-2.8c-11.2,0.2-21.1,7-21.9,16.3s13.9,11.4,19.7,10.8
	c5.8-0.6,6.8,0.2,11,6.6s15.5,7,19.9,4.6c4.4-2.4,5.6-4.8,5.4-7.6c-0.2-2.8-4,0,3.4,5c7.4,5,11-3,10.4-10.6
	c-0.6-7.6-2.4-10.8-0.8-17.3c1.6-6.6,6.2-8,13.3-3.2c7.2,4.8,27.1,0.2,33.5-0.4c6.4-0.6,9.4,1.6,13.3,2c4,0.4,10.8,2.6,8.4-6
	c-2.4-8.6-3.2-37.5-0.8-53.8c2.4-16.3,5.4-36.5,0.2-62.2S466,99.3,455.4,89.7c-10.6-9.6-14.3-16.5-13.7-18.1c0.6-1.6,11,2.4,6-4.8
	c-5-7.2-15.7-1-12.4,5s18.5,21.1,12,23.5s-7,0-2.8,5.6s1.2,10.3-3.6,6.9c-4.8-3.5-4.8-3.9-6.2,5.7c-1.4,9.6-12.6,13-24.7,9.2
	c-12.2-3.8-17.3-8-18.5-25.5s-1.6-26.5,3.2-27.5c4.8-1,9-1.4,11.2-0.6c2.2,0.8-8.2,6.6-11.8-1.4s6.2-9,9.2-8.4
	c3,0.6,12.8,10,7.8,13.9c-5,4-9.2,7.2-6.6,11.6c2.6,4.4-13.1,7-8.2,11.6c5,4.6,1.6,6.8,5,12.6s2,9.2,8.6,2.4
	c6.6-6.8,14.3-16.3,17.1-19.7s3.6-13.1-6-12.6c-9.6,0.6-2,16.9,5.6,26.9s4.6,18.1,8,18.3s18.1-8.8,20.7-21.3s0.6-28.7-4-42.6
	c-4.6-13.9-0.8-18.7,2.8-19.3c3.6-0.6,15.9,7.8,13,21.1c-3,13.3-5.2,34.5,1,31.9s22.1-21.5,20.3-36.3s-26.9-21.5-31.5-21.9
	s-8.8,6.8-13,0s-13.5-12.4-27.1-8.4c-13.5,4-10.6,9.6-15.9,6.8s-16.7,0.4-19.1,14.3c-2.4,13.9,1.2,25.7-2.8,35.3
	c-4,9.6-4.4,17.1-7.6,11.4c-3.2-5.8-14.9-22.7-11.8-35.7c3.2-13,20.9-23.9,29.7-19.7c8.8,4.2,5,11.4-0.8,19.7
	c-5.8,8.4-2,18.3-2,29.3s2.6,22.3,1,32.1s-7.6,27.3-2,38.6c5.6,11.4,11.8,16.8,22.1,22.1c10.4,5.4,14.5,14.7,12.4,21.5
	c-2.2,6.8-3.2,16.1-2.6,23.5c0.6,7.4-1.8,14.9,2.6,13.7c4.4-1.2,8.6-4.8,11.4-0.2c2.8,4.6,7.2,15.9,14.7,10c7.6-6,7-14.7,9.4-24.5
	c2.4-9.8,5-18.1-1.4-24.5c-6.4-6.4-14.3-10-17.3-15.3c-3-5.4-5.2-12.6-2.6-10s4,8,10,10.8c6,2.8,8.6,3,10.8,7.6
	c2.2,4.6,5.6,3,6.6-1.6c1-4.6-0.2-13-1.4-15.7c-1.2-2.8,3,17.1,2.6,29.1c-0.4,12,0.6,30.1-4.8,40.2c-5.4,10.2-4.8,15.7,1.4,17.3
	s13,2.8,17.7,3c4.8,0.2-7.2-1.8-15.9,2.6s-5.6,19.7,4,21.3c9.6,1.6,20.6,2,23.5,0.2c2.8-1.8,2.5-0.8,6.6,0.2c4.2,1,10.4-3.4,5.8-8.6
	c-4.6-5.2-1.8,9.2,7.2,3s0.2-13.9,10.6-22.7c10.4-8.8,26.3-6.2,29.7-0.8c3.4,5.4,2.6,14.3-16.9,13.9c-19.5-0.4-18.5-10-12.8-21.3
	c5.8-11.4,17.5,0.6,25.9-0.6c8.4-1.2,5.6-3.6,2.2-7.2c-3.4-3.6-7.6-4.2-17.9-6.6c-10.4-2.4-13.5-15.5-11.2-28.9
	c2.4-13.3,16.7-29.9,10-35.5s-17.9,7-17.5,33.3c0.4,26.3,0.4,37.5-0.8,42.6c-1.2,5.2-1.6,10.4,0,12.8c1.6,2.4,0.6,11.4-4.4,11
	c-5-0.4-12.2-8.2-14.3-13.1c-2.2-5-3-9.6-2.6-16.9c0.4-7.4-3.2-9.4-1.8-21.7c1.4-12.4,9.2-23.7,7.6-45.4s-4.8-33.9-5.4-46
	c-0.6-12.2-1-20.9,4.4-28.5c5.4-7.6,14.5-8.6,18.3-3c3.8,5.6,8.2,28.5,19.1,43.6c11,15.1,19.3,19.9,25.9,19.1
	c6.6-0.8,0.8-1.8-6.8-6.8c-7.6-5-6.6-8.2-2-6.4s12.8,9.6,21.7,5c9-4.6,11.8-11.3,4.8-11c-7,0.4-16.3,3.6-22.7-2.4
	c-6.4-6-8.4-11.6,0.4-11.6s21.9-0.6,23.5-4.6c1.6-4-1.6-10.6-6.6-7.8c-5,2.8,0.8,15.7,10.2,14.9s10.4-9.6,9.2-14.1
	c-1.2-4.6-4-11-13.9-8s-17.1,4.4-16.1,1.4s17.1-17.9,17.1-24.9c0-7-9.2-6.6-17.1,2.2c-8,8.8-7.2,17.3-10,27.1
	c-2.8,9.8-5.4,16.7-11.6,16.7s-6.8-5.4-10.4-18.9s-9.6-19.1-12-22.7c-2.4-3.6-6-6.6-1-14.1c5-7.6,19.7-20.9,40.4-21.5
	c20.7-0.6,27.3,2.4,33.1,9.8c5.8,7.4,7.8,15.5,11,14.1c3.2-1.4-1.6-8.8-4.2-10.6s-4.1-3.8,5.2-2.8s22.5,13.7,23.6,27.3
	c1.2,13.5-7.6,15.3-12.2,15.1s-8.2-8.2-5-14.9c3.2-6.8,8-4.6,9.8,0.4c1.8,5-8.2,14.9-6.4,19.7c1.8,4.8-3.4,8.6-10.2,10.8
	s-4.2,9.8-0.2,11.2c4,1.4,8.4-2.8,4.4-7.6c-4-4.8-12.2,2.4-8.4,11.2c3.8,8.8,0,15.3-3.8,14.3c-3.8-1-4.4-6.4-1.2-7.8
	s7.2-0.2,8.4,8.4s-6.6,15.3-9.4,16.3c-2.8,1-5.8-0.4-0.4-7c5.4-6.6,6.5-7.6,0.4-7.8s-3.2,5-7.2,11.6c-4,6.6-5.4,5.4-14.1,5.2
	s-13.1-0.4-20.5-6.2c-7.4-5.8-10.2-11.4-14.1-9.2c-4,2.2-1.8,9.8,10.4,22.7c12.2,13,14.1,35.1,13.7,49.4
	c-0.4,14.3,0.8,19.9-1.4,26.3c-2.2,6.4,1.8,13.9,10.6,14.5c8.8,0.6,11.2-0.6,11.2-3.8c0-3.2-5-2.8-13.9-1.8s-13.7,10.4-9.6,19.7
	c4.2,9.4,9.2,7,12.6,4.8c3.4-2.2-2.6-2.2,1.6,2s16.7,3.6,20.3,1.5s7-1.9,6.8-5.1s-2.8,0,1.6,1.6s6.6-2,3.8-10.2
	c-2.8-8.2-6.8-10.6-11.8-13.3c-5-2.8-7.4-12.2-4.2-16.7c3.2-4.6,7-8.4,17.5-8.2c10.6,0.2,13,4.8,17.9,9c5,4.2,11.4,11,8.4,14.7
	s-4.4,7.8-7.2,2.8c-2.8-5-1.4-5.2-7.4-6.6c-6-1.4-9.8-9.2-14.7-11.2c-5-2-13,1.2-11.2-15.7c1.8-16.9-1.4-30.3-2.4-38.9
	c-1-8.6,0.2-19.5,7.2-18.1c7,1.4,14.9,13.3,17.5,22.1c2.6,8.8,5.2,14.1,11.6,18.3c6.4,4.2,8.7,8,7.3,15.7c-1.4,7.8-2.6,9.2,2.8,9.6
	s4.2,7.4,8.2,8.2c4,0.8,6.6,6,2.8,8.4s-4.8,0.4,3.8,0.4c8.6,0,16.5,6.2,15.9,11.2s-1.8,9.4-9.4,10.4s-12.2-4-15.7-8.8
	c-3.6-4.8-12,0.2-10.2,5.6c1.8,5.4,16.3,10,27.3,7.2s33.9-9.2,42.8-13.1c9-4,23.5-9.6,16.5-23.1c-7-13.5-4-32.3-2.8-36.3
	c1.2-4,2.6-4.8,6-3.2c3.4,1.6,11.4,5.4,3.2-1.6c-8.2-7-8.2-5.6-11.6-13.3c-3.4-7.8-7.2-11-8-6.8c-0.8,4.2,5.6,7.6,2,14.7
	s-8,13-7,26.5s0.2,18.9-6.4,22.5c-6.6,3.6-11.4,8-11.4,13.9s5,1.8,5.4-1c0.4-2.8-3,5,2.4,6.2s5.8-3.4,6.6-5c0.8-1.6,1.2-2.8,2-3.4
	c0.8-0.6-2.2,5.7,3,6.6c5.2,0.8,9.6-6,9.6-8c0-2-2.2,2.2,3,2.8s9.8-8.6,9-16.9c-0.8-8.4-1.4-17.7,9-16.9s19.1,3,20.1-3.8
	s-10.8-12.6-24.5-20.9c-13.7-8.3-20.3-32.9-20.7-42.8c-0.4-10,6.2-23.5,4.8-28.7c-1.4-5.2-6-1.6,4.6,0.8
	c10.6,2.4,18.9-2.4,18.5-11.8c-0.4-9.4,2.4-4.6-3.2,0.4c-5.6,5-10.8,5.6-17.1,3c-6.4-2.6-7-8.4-12.6-16.5s-13.9-19.9-8-23.1
	c6-3.2,10.6-7.4,5.4-7.2c-5.2,0.2-11,4.4-14.7-1c-3.8-5.4,0.6-6,5.2-8.2c4.6-2.2,12.8-8,6-12.6s-10,1.8-12,6.4s-5.4,7.6-8,3
	s2.8-4.2,0.6-7.8c-2.2-3.6-3.2-6.8,0-7.8s5.4,1,5.8,2c0.4,1-2.2-3.6,2.2-6.6c4.4-3,4.4,2,4.6,3s-1.6-5.8,4.4-5.2
	c6,0.6,5.6,1.8,8,13.7s9.6,29.1,15.9,33.5c6.4,4.4,19.3,5.6,24.1,2.2s5.6-6.8,3.8-6.4c-1.8,0.4-11.8,3.6-15.3-1
	c-3.6-4.6-5.8-10.2,0.8-14.1c6.6-4,6.2,1.4,19.9-0.6c13.7-2,10-6.4,12-9c2-2.6,5-4,4,1.6c-1,5.6,1.8,15.9-13.1,16.3
	s-9.4-0.8-19.9-0.2c-10.6,0.6-13.9-2.4-13.9-6.2c0-3.8,7.8-10.6,9.8-18.5c2-8,4.2-21.1-3-21.9c-7.2-0.8-9,9.2-2.8,10.2
	c6.2,1,7.2-5.2,14.1-10.8c7-5.6,13-3.4,17.5-2.2c4.6,1.2,8.6,0.3,3.8-5.1s-13.7,2.1-1.2,9.5c12.6,7.4,11.2,18.7,7.8,20.7
	c-3.4,2,2.8,0.4-7.2-5.2c-10-5.6-18-13.4-12.4-17.5s11.6,6.4,4.6,18.3c-7,12-18.1,19.1-24.5,18.9c-6.4-0.2-16.3-1.2-18.9-14.1
	s-3.8-19.1,0.2-22.7c4-3.6,1.6,0.8-5-1.8c-6.6-2.6-6.4,3.2-9.6,4.6c-3.2,1.4-11.4,2.6-16.3,3.6c-5,1-1.2,3.6,5-8.6
	c6.2-12.2,10.6-21.3,18.1-21.9c7.6-0.6,10.6,2.8,14.3,6s5.6,6.6,12,2.8s15.7-8.2,26.1-6.4s15.1,7.2,21.1,15.1c6,8,8.4,18.3,8.6,20.5
	c0.2,2.2-0.8,1.8,2-4.2c2.8-6,10.6-19.9,6.8-30.1c-3.8-10.2-11.6-5.4-17.9-2.2s-6.4,6.2-2.8,19.5c3.6,13.3,4.8,22.3,3.2,29.1
	s-2,12.8,3.2,15.5s8.4,6.2,6.4,11.2s-5,4.6-3,0.4c2-4.2,7.4-15.7,8-22.7c0.6-7,2.2-18.7,12.2-23.3s12.6-3.2,14.1,0.4
	c1.6,3.6,2.8,10-6.8,8.8c-9.6-1.2-10.2-7-10.8-12.6c-0.6-5.6,0.6-5.8,0.2-9.4s4.6-2.8,6.4,0c1.8,2.8,1,4.6,2.6,0.2s3-5.8,5.6-5.6
	s2.4,3.4,2,4.6s2.2-3.1,5.9-1.4c3.7,1.7,0.3,6.9-1,8.5s-1,1.7,1.8,1.8c2.9,0.1,7.3,1.8,3.4,7.3c-3.9,5.5-12.1,12.6-13.9,23.4
	c-1.8,10.9-1.3,29.3-5.4,42.4c-4.1,13.1-12.4,15.6-14.9,16.1c-2.5,0.5-4.6,2.4-2.7,14.9c1.9,12.6,4.6,25.1,4.8,30.2
	c0.1,5.1,1.5,29-9.9,43c-11.4,14-19.4,11.4-18.5,16.4c0.9,5.1,12.3-0.1,17.9-2.5c5.7-2.4,10.8-1.6,17.3,4.6
	c6.6,6.3,6.9,11.4,5.4,13.4c-1.5,2.1-1,6.9,0.7,7.3s4.3-2.4,4.8-3.4c0.4-1-1.6,1,0.7,4.3c2.4,3.3,8.2,1.3,7.5-3.7
	c-0.7-5.1-3.3-2.2,1.8,2.5s8.2-0.7,7.9-3.3c-0.3-2.5-2.1-3,1.3-1c3.4,1.9,0-9.4-0.9-11.4c-0.9-1.9-6.3-1.9-8.1-3.3
	c-1.8-1.3-7.8-8.7-8.4-14.9c-0.6-6.3,0-13-3.6-15.8c-3.6-2.8-13.4-3.7-10.3-16.1c3.1-12.4,6.7-21.8,15.2-28.7s17.9-16,20.2-19.6
	c2.2-3.6,2.1-2.5,3.4-0.1c1.3,2.4,2.8,8.2,0,16.1c-2.8,7.9-5.1,14,0.6,30s6.7,29.7,6.7,35.1c0,5.4-1.6,13,1.6,14.9
	c3.3,1.9,5.7-0.1,6.6-2.5c0.9-2.4-1.9,0.3,0,4.6c1.9,4.3,5.7,4.6,7.5,1.6s2.2-4.9,2.1-7.2c-0.1-2.2-1,6.6,3.3,7.3
	c4.3,0.7,5.5-4.3,4.6-7c-0.9-2.7-1.6,1,2.7,1.3c4.3,0.3,4.3-6.1,1.8-9.4s-7.9-5.5-8.4-12.6s-1-8.4-1.9-12.7
	c-0.9-4.3-0.1-6.9,3.1-3.4c3.3,3.4,1.2,5.7,6.1,4.9c4.9-0.7,17.8-7.2,16.4-17.9s-6.9-18.7-12.6-27.6c-5.7-9-11.5-18.1-8.8-23.5
	c2.7-5.4,12.6,1,17,2.4c4.5,1.3,11.8,3,11.4-2.8s-4.5-11.5-6.7-17.2c-2.2-5.7-1.9-4.2-1.3-5.5c0.6-1.2,0.1,0.7-3.1,1.2
	c-3.3,0.4-7.2-0.7-8.5-1.2c-1.3-0.5-3.6-2.1-7.6,1.5c-4,3.6-8.7,6.3-13.7,3.3c-5.1-3-9.6-8.4-11.4-10s-3.4-1.6-1.2,2.8
	c2.2,4.5,10.2,17,10,21.5s-0.3,6.4-9.1,4.8c-8.8-1.6-17.2-6.4-20.5-10c-3.3-3.6-3.1-13-1.8-25.3s5.7-27.5,10.6-27.9
	c4.9-0.4,6.9,7.6,11.1,16.4s8.1,13,8.4,9.6c0.3-3.4,2.1-13.9,4.5-17.5c2.4-3.6-1.3,2.7-4.5,2.7c-3.1,0-6.1-5.5-3.6-9.3
	c2.5-3.7,5.2-3.4,8.7,0c3.4,3.4,1.8-0.1,2.4-3.7c0.6-3.6,2.1-11.7,7-11.2c4.9,0.4,7.6,8.8,8.8,10.5c1.2,1.6,1.2,4.9,8.7,4.9
	s6.4-2.7,3.9-4.3s-7.5-3.7-7.5,1.3c0,5.1,5.7,10.6,8.2,14.5s5.5,11.7,1.9,16.3c-3.6,4.6-9.4,0.3-14.8-4.5c-5.4-4.8-12-9.4-11.1-14.8
	s10-6.1,9.9-1.6c-0.1,4.5-1.8,13.7-10.5,22.3c-8.7,8.5-14.8,4.9-18.5-1.2c-3.7-6.1-5.2-11.2-8.4-16.4C827.6,77,830,63,842,54.9
	s21.1-8.2,33.5-4s21.1,14.2,23,34.7c1.9,20.5,4.8,23.9,9.4,30.3s1.2,2.5,5.8-2.2s15.7-19,12.1-31.1c-3.6-12.1-19.9-22.1-25.7-25.7
	s-16.3-7.9-15.7,1.9c0.6,9.9,3.7,8.7,4.6,20.5s0.6,22,5.8,31.7c5.2,9.7,7.2,11.8,8.2,28.4c1,16.6,3.1,40.3,4.5,50.2
	c1.3,9.9,5.5,29,12.6,31.5c7,2.5,4.8-0.4,3-3.1s-9.1-11.1-10.2-23c-1-12-0.6-36.3-12-38.3c-11.4-1.9-15.1,8.4-14.6,16.6
	c0.4,8.2,9.3,27.5,10.6,37.7c1.3,10.2,2.5,20.2,6.4,18.4s-4.2,1.5,2.2,6.3s9.4,0.4,9.3-2.4c-0.1-2.8-1,2.1,3.9,5.7s6.9-0.9,5.8-3.6
	c-1-2.7-1.5,0.6,3,1.6c4.5,1,4.3-2.4,4-4.3c-0.3-1.9,3.6,2.4,7.9,8.2s12.7,17,20.3,18.7c7.6,1.6,31.4,2.4,31.4,2.4"/>
</svg>
