<?xml version="1.0" encoding="utf-8"?>
<!-- Generator: Adobe Illustrator 26.1.0, SVG Export Plug-In . SVG Version: 6.00 Build 0)  -->
<svg version="1.1" id="Layer_1" xmlns="http://www.w3.org/2000/svg" xmlns:xlink="http://www.w3.org/1999/xlink" x="0px" y="0px"
	 viewBox="0 0 985.4 473" style="enable-background:new 0 0 985.4 473;" xml:space="preserve">
<style type="text/css">
	.st0{fill:none;stroke:#333333;stroke-miterlimit:10;}
</style>
<path class="st0" d="M11.7,350.6c0,0,59.2-9.5,125.7,5.1C204,370.2,272,395.9,291.4,395c19.4-0.8,23.8-8,20-15.6
	c-3.8-7.6-28.9-12.6-42.1-0.2c-13.3,12.4,5.1,24,23.6,24s59.2-14.5,79-30.3s17.7-27.8,26.7-27.8s11.8,3.2,17.1,7.2
	c5.3,4,8.4,7.8,18.7,5.1c10.3-2.7,16.2-7.4,27.4-4.8c11.2,2.5,13.7,9.9,10.1,21.7c-3.6,11.8-11.4,34.5-24.6,51.4
	c-13.3,16.8-16.4,7.8-24.6,18.3c-8.2,10.5-2.7,15.8,6.3,18.5s21.9,5.3,31.8-4.4s24.9-27.2,41.1-61.5s37.5-82.3,37.5-126.6
	S509,200.7,474,200.7s-48,5.7-58.1,11.8c-10.1,6.1-20.4,9.5-41.9,8.6c-21.5-0.8-44.6,11.2-55,27.6c-10.3,16.4,4,38.1,15.2,38.1
	s13.3-6.9,20.4-12.2s34.1-26.7,39.6-33.3c5.5-6.5,1.5-6.5-2.7-5.9c-4.2,0.6-15.4,4-17.7,18.7c-2.3,14.7,0.6,36.2,5.7,41.9
	c5.1,5.7,8.2,5.5,8.4,14.5s-1.2,28.4-1.1,37.3c0.1,8.9,1.7,10.7,8.8,12.2c7.2,1.5,20.6,6.1,31.6-5.9s9.9-18.1,13.7-23.8
	c3.8-5.7,9.7-10.5,19.4-18.1c9.7-7.6,12.4-20.2,11.6-27.4c-0.8-7.2-12.6-20.8-21.3-25.5c-8.6-4.6-17.9-6.9-20.6-2.3
	c-2.7,4.6,6.7,9.1,15.4,10.3c8.6,1.3,19.2,5.7,32,23.2c12.8,17.5,21.5,23,29.9,22.7c8.4-0.2,17.1-7.2,16-27.6s-6.5-50.3-34.3-54.3
	c-27.8-4-61.3-4.2-70.1-12.6c-8.8-8.4-2.5-15,6.7-18.1c9.3-3.2,43.2-6.7,64-8s48.4-7.8,62.3-13.9c13.9-6.1,33.5-12.2,45.1-13.9
	c11.6-1.7,36.4-3.6,35.4-35s-8.4-49.7-20.6-68.9c-12.2-19.2-31.6-46.1-24.4-48.6c7.2-2.5,21.1-1.3,41.7,25.7
	c20.6,27,33.9,57.7,33.9,87.2s-4,34.3-6.5,41.9c-2.5,7.6-7.4,13.3,2.9,22.3c10.3,9.1,31.8,31.2,37.1,60.7s6.9,40,12.2,44.2
	c5.3,4.2,7.8,5.7,15.4,6.5c7.6,0.8,14.7,8.2,14.7,21.9s1.9,24.2,6.3,29.7c4.4,5.5,10.1,11.2,13.5,12.6s3.8,4,4,9.3
	c0.2,5.3,2.9,25.1-4.6,27c-7.6,1.9-17.3,0-24.9-12.8c-7.6-12.8-8-23.6-10.3-33.9c-2.3-10.3-7.6-24.2-34.5-33.3s-35.4-16.2-46.3-29.5
	c-11-13.3-17.9-19.2-35.2-17.9c-17.3,1.3-31.4,8.4-30.5,17.9c0.8,9.5,13.3,24,25.7,38.1c12.4,14.1,21.7,24.2,21.7,49.1
	s-4.6,38.3-23.6,44c-19,5.7-29.3-3.2-24.6-12s17.3-11.6,36.2-10.3c19,1.3,82.1,8.6,115.2,12.6c33.1,4,62.1,7.2,107.8,2.9
	c45.7-4.2,118.6-31.4,141.1-53.5"/>
</svg>
