<?xml version="1.0" encoding="utf-8"?>
<!-- Generator: Adobe Illustrator 26.1.0, SVG Export Plug-In . SVG Version: 6.00 Build 0)  -->
<svg version="1.1" xmlns="http://www.w3.org/2000/svg" xmlns:xlink="http://www.w3.org/1999/xlink" x="0px" y="0px"
	 viewBox="0 0 553 172.2" style="enable-background:new 0 0 553 172.2;" xml:space="preserve">
<style type="text/css">
	.st0{fill:#FFFFFF;}
	.st1{fill:#FF0000;}
	.st2{fill:#464646;}
</style>
<g id="Layer_3_copy">
	<g>
		<path class="st0" d="M535.2,73.6c-2.6-4-6.3-6.8-11-8.4c0,0,0,0,0,0c0.2-0.4,0.4-0.8,0.5-1.2c3-7.3,3-14.9,0-22
			c-3.3-7.8-11.1-12.7-19.6-12.7l-0.1,0c-2.5,0-4.9,0.4-7.4,1.2c-0.1,0-0.2,0-0.2-0.1c-2.5-8.6-8.3-12.6-12.9-14.4
			c-3.4-1.3-6.9-1.8-10.4-1.4c-4.9,0.6-9.5,2.6-13.7,6c-3.1,2.6-5.7,5.8-7.7,9.7c0,0.1-0.2,0.1-0.2,0.1c-4.5-2-9.6-2.3-14.5-0.9
			c-2.9,0.8-5.7,2.1-8.3,3.9c-3.8,2.6-7,6.3-9.4,10.8l-0.5,1.1c-0.3,0.6-0.6,1.2-0.8,1.8c-2.9,7.1-3,14.2-0.4,21
			c0.9,2.3,2.1,4.4,3.7,6.2c1.2,1.4,1.2,3.4-0.1,4.7c-0.5,0.6-1,1.2-1.5,1.8c-1.6,1.9-4.5,1.6-5.7-0.6c-1.3-2.3-2.7-4.5-4.4-6.6
			c-5.7-7-13.3-11.4-22.1-12.9c-7.9-1.3-15.7,0-22.9,3.9c-0.1,0-0.1,0-0.2,0c-5.1-3.9-10.6-4-15-3.1c-0.2,0.1-0.5,0.1-0.8,0.2
			c-1.4-1-2-1.5-3.4-2.5c-0.1-6-2.2-11.2-5.9-14.8c-3.4-3.3-8.1-5.1-13.1-5c-8.9,0.2-17.9,6.6-18,20.3c0,3.8,0,7.6,0,11.4
			c0,0.2-0.2,0.2-0.3,0.1c-6.4-6.1-14.8-10.2-23.8-10.8c-14.3-1.1-27,4.5-35.2,15c0-0.1-0.1-0.1-0.1-0.2c-2.9-4.6-7-8.1-12-10.5
			c-4.7-2.2-10-3.3-15.8-3.3c-3.7,0-7.2,0.4-10.5,1.2c-0.3,0.1-0.5,0.1-0.8,0.2v-4.4c0-7.1-2.9-11.4-5.2-13.8
			c-2.4-2.4-6.6-5.2-13.4-5.2c-6.3,0-10.4,2.5-12.8,4.7c-0.1-0.1-0.1-0.1-0.2-0.2c-3.7-3.5-8.8-5.3-13.9-4.9
			c-9.7,0.6-17.3,8.9-17.3,18.7v31.4c0,4-1.7,7.9-4.6,10.8c-2.8,2.7-6.4,4.2-10,4.1c-3.6-0.1-6.9-1.4-9.4-3.7
			c-1.6-1.4-1.6-3.8,0.1-5.2c4.5-3.9,7.2-9.6,7.1-15.8c-0.2-11-9.4-19.9-20.6-19.9H90.8c-11.1,0-20.4,8.9-20.6,19.9
			c-0.1,6.2,2.6,11.9,7.1,15.7c1.6,1.3,1.6,3.8,0.1,5.2c-2.5,2.3-5.8,3.6-9.4,3.7c-3.7,0-7.3-1.4-10-4.1c-2.9-2.9-4.6-6.8-4.6-10.8
			V57.8c0-9.9-7.6-18.1-17.3-18.7c-5.1-0.3-10.1,1.5-13.8,5c-3.7,3.5-5.8,8.4-5.8,13.5V89c0,13.4,5,26.2,14.2,36
			c9.3,9.9,21.8,15.6,35.2,16.1c0.6,0,1.3,0,1.9,0c12,0,23.6-4.3,32.8-11.8c0.1-0.1,0.2-0.1,0.2,0c9.6,8,22,12.3,34.7,11.8
			c13.4-0.5,25.9-6.2,35.2-16.1c1-1.1,2-2.2,2.9-3.4v0.8c0,11.5,7.2,19,18.5,19c6.8,0,11.1-2.8,13.4-5.2c2.4-2.4,5.2-6.7,5.2-13.7
			v-19.5c0-5.2,0.4-7.1,0.6-7.7c0.7-2.2,3.3-2.6,4.5-2.4c0.6,0.1,1.7,0.5,1.7,4.7v24.9c0,11.5,7.2,19,18.5,19
			c5.2,0,9.7-1.8,13.2-5.1c1.4-1.4,3-3.5,4.1-6.4c0-0.1,0.2-0.2,0.3-0.1c0.6,0.6,1.3,1.2,1.9,1.8c7.1,6,17,9.1,26.8,9.1
			c7.7,0,15.4-1.9,21.5-5.8c1.7-1.1,4.4-2.8,6.4-5.6c0.1-0.1,0.3-0.1,0.3,0c2.5,7.3,8.5,11.9,16.6,12.1c0.2,0,0.4,0,0.5,0
			c3,0,5.8-0.6,8.3-1.8c0.1,0.1,0.1,0.1,0.3,0.2c0.1,11.9,7.2,19.7,18,20c0.2,0,0.4,0,0.5,0c6.3,0,10.3-2.6,12.6-4.8
			c3.9-3.7,5.8-9.1,5.8-15.9c0.1-0.1,0.1-0.1,0.3-0.2c13.6,4,26.2,0.6,35.9-10.1c3.7-4,6.4-8.6,8.2-13.5c0-0.1,0.2-0.2,0.3-0.1
			c0.6,0.6,1.2,1.2,1.9,1.8c2.7,2.2,5.7,3.8,9.7,5c2.7,0.8,5.3,1.2,7.6,1.6c0.6,0.1,1.1,0.2,1.7,0.3l0.7,0.1
			c3.9,0.6,7.6,1.2,11.1,2.1c0,0,0.1,0,0.1,0c0.4,0.4,0.8,0.7,1.2,1.1c1.5,1.4,3,2.7,4.3,4c1.3,1.2,2.5,2.6,3.8,4
			c0.6,0.6,1.1,1.2,1.7,1.8c2.9,3,5.6,5.3,8.6,7c3.6,2.1,7.3,3.2,11,3.2c5,0,9.8-1.9,13.9-5.7c3.6-3.2,5.9-7,7.7-10.2l0.4-0.7
			l0.3-0.7c0.1-0.2,0.2-0.4,0.3-0.6c0.4-1,1-2.5,1.5-4.2c0.8-2.6,1.2-5.4,1.3-8.1c0-0.1,0.1-0.2,0.2-0.2c1.6,0.4,3.1,0.6,4.7,0.6
			c0.3,0,0.5,0,0.8,0c6.1-0.3,11.9-2.7,16.6-7.1c5.6-5.2,9.1-11.9,9.9-19.5C539.7,84.4,538.4,78.6,535.2,73.6z"/>
		<path class="st0" d="M70.5,55c11.1,0,20.2-9.1,20.2-20.2s-9.1-20.2-20.2-20.2s-20.2,9.1-20.2,20.2S59.3,55,70.5,55z"/>
		<path class="st0" d="M130.9,55c11.1,0,20.2-9.1,20.2-20.2s-9.1-20.2-20.2-20.2s-20.2,9.1-20.2,20.2S119.8,55,130.9,55z"/>
	</g>
</g>
<g id="Layer_3">
	<g id="PCrPrw_00000155116826004809585760000017938875035534487712_">
		<g>
			<path d="M363.3,122.9c0,6,0.1,11.3,0,16.6c-0.1,6.9-3.1,10.4-8.7,10.3c-5.4-0.1-8.2-3.6-8.2-10.2c0-19.3,0-38.6,0-57.9
				c0-6.4,1.9-9.5,6.3-10.4c4.7-1,7.9,0.9,11.1,6.9c6.6-5.9,14.3-9.1,23.1-7.6c6.4,1.1,11.8,4.3,16,9.4c10.2,12.4,9.8,30.6-0.7,42.1
				C392.1,133,378.7,133.4,363.3,122.9z M363.2,100.5c-0.1,9.1,6.9,16.6,15.6,16.8c8.7,0.1,15.7-7.2,15.8-16.4
				c0.1-9.3-6.7-16.6-15.5-16.7C370.4,84.1,363.3,91.4,363.2,100.5z"/>
			<path d="M267.7,106.4c2.2,9.8,13.1,11.9,19.6,9.1c2.6-1.1,5.2-3,7.8-3.1c2.8-0.1,6.6,0.6,8.1,2.5c1.3,1.6,0.2,5.4-0.6,8
				c-0.5,1.5-2.4,2.7-3.9,3.7c-10.4,6.5-27.4,5.4-36.6-2.5c-10.1-8.5-13.5-22.7-8.5-34.9c5.3-12.9,16.8-19.9,30.9-18.8
				c13,1,24.6,11.7,26.6,24.6c1.1,7.3-1.7,10.8-9,10.9c-9.8,0.2-19.6,0.2-29.4,0.3C270.9,106.2,269.3,106.3,267.7,106.4z
				 M267.5,95.4c9.5,0,18.7,0,27.9,0c-1.2-6.5-6.3-10.8-13-11.1C275.3,83.9,269.9,87.7,267.5,95.4z"/>
			<path d="M319.4,90.7c0-10.3,0-20.6,0-30.9c0-6.5,3.1-10.2,8.3-10.4c5.1-0.1,8.7,3.6,8.7,10c0.1,20.8,0.1,41.6,0,62.4
				c0,6.4-3.5,9.9-8.8,9.8c-5-0.1-8.1-3.7-8.1-9.9C319.3,111.3,319.4,101,319.4,90.7z"/>
		</g>
	</g>
	<g>
		<path class="st1" d="M494.3,126.5c-1.8,3.3-3.5,5.7-5.7,7.7c-3.9,3.6-8.5,4-13.1,1.3c-2.4-1.4-4.5-3.3-6.4-5.3
			c-1.9-2-3.8-4.1-5.8-6.1c-2.3-2.2-4.7-4.3-7-6.4c-0.7-0.7-1.7-0.9-2.6-1.1c-4.3-1.2-8.8-1.9-13.2-2.6c-2.7-0.4-5.4-0.7-8.1-1.5
			c-2.3-0.7-4.4-1.6-6.2-3.1c-2.7-2.2-3.7-5.1-3.5-8.5c0.2-2.9,1.1-5.6,2.2-8.2c2.7-6,7.2-10.3,13.3-12.9c2.8-1.2,5.8-2.1,8.8-3.1
			c5.7-1.9,11.4-3.9,16.9-6.4c2.1-1,4.3-1.9,6.6-2.4c4.3-0.8,8.2-0.1,11.8,2.5c3.8,2.7,5.9,6.5,6.6,11.1c1,6.2,2.6,12.4,4.3,18.4
			c0.7,2.6,1.6,5.1,2.3,7.7c1.3,4.8,1.6,9.7,0.2,14.6C495.4,124,494.6,125.6,494.3,126.5z"/>
		<path class="st1" d="M490.1,49.5c1.9-3.4,4.3-6.2,7.7-8.2c2.3-1.3,4.7-2.1,7.4-2.1c4.7,0.1,8.9,3,10.6,7.5c1.7,4.5,1.5,9-0.4,13.5
			c-1.4,3.5-3.5,6.5-6.5,8.9c-2.4,1.9-5.1,3.1-8.2,3.4c-3.3,0.3-6.1-0.7-8.6-2.8c-1.2-1-2.1-2.2-2.8-3.7c-2-4.2-2.1-8.4-0.7-12.8
			C489,52,489.6,50.7,490.1,49.5z"/>
		<path class="st1" d="M502.5,84.3c2.2-4.2,5.3-7.4,9.7-9.2c2.8-1.2,5.8-1.5,8.7-0.5c2.4,0.8,4.4,2.3,5.9,4.4
			c2.1,3.2,2.7,6.8,2.3,10.6c-0.6,5.2-2.9,9.7-6.8,13.3c-2.9,2.6-6.3,4.3-10.2,4.4c-2.2,0.1-4.2-0.6-6.1-1.7
			c-3.9-2.3-5.4-5.9-5.9-10.1C499.7,91.5,500.6,87.8,502.5,84.3z"/>
		<path class="st1" d="M429.2,48.9c1.5-2.9,3.5-5.4,6.3-7.3c1.6-1.1,3.4-2,5.3-2.5c6.6-1.9,12.9,2,14.6,8.6
			c1.1,4.6,0.6,8.9-1.5,13.2c-1.4,2.9-3.2,5.5-5.8,7.5c-2.8,2.2-6,3.6-9.6,3.6c-4.6,0-8.8-3-10.5-7.4c-1.8-4.6-1.5-9.1,0.3-13.7
			C428.5,50.2,428.9,49.5,429.2,48.9z"/>
		<path class="st1" d="M486.4,46.8c-2.3,4.3-5,7.3-8.9,9.2c-2.7,1.3-5.4,2.1-8.4,1.4c-4.7-1-7.7-3.9-9.1-8.5
			c-1.2-4.2-0.9-8.3,0.8-12.3c1.4-3.3,3.2-6.1,6-8.4c2.5-2,5.3-3.4,8.5-3.8c1.9-0.2,3.7,0,5.5,0.8c4.2,1.7,6.4,4.9,7.3,9.2
			C489.1,39,488.2,43.3,486.4,46.8z"/>
	</g>
	<g>
		<path d="M200.7,58.5v21.9c2.2-2.2,4.3-3.9,6.4-5.1c2.1-1.3,4.4-2.2,6.9-2.8c2.5-0.6,5.2-0.9,8.1-0.9c4.3,0,8.2,0.8,11.6,2.4
			c3.4,1.6,6,3.9,7.9,6.9c1.2,1.8,2,3.7,2.4,5.9c0.4,2.2,0.6,4.7,0.6,7.5v28.3c0,3-0.8,5.2-2.4,6.7c-1.6,1.5-3.6,2.3-6.2,2.3
			c-5.6,0-8.5-3-8.5-9V97.5c0-4.7-0.8-8.3-2.4-10.9c-1.6-2.5-4.7-3.8-9.3-3.8c-3.1,0-5.8,0.7-8.2,2.2c-2.4,1.5-4.3,3.5-5.5,6.1
			c-0.9,2.2-1.4,6.1-1.4,11.7v19.5c0,2.9-0.8,5.1-2.3,6.7c-1.5,1.5-3.6,2.3-6.4,2.3c-5.6,0-8.5-3-8.5-9v-64c0-3,0.7-5.2,2.2-6.7
			c1.5-1.5,3.6-2.2,6.2-2.2c2.7,0,4.8,0.8,6.4,2.3C200,53.3,200.7,55.5,200.7,58.5z"/>
	</g>
	<path class="st2" d="M114,89.6c0.3-0.1,0.6-0.2,0.9-0.3C114.8,89.3,114.5,89.4,114,89.6z"/>
	<path d="M174.9,57.5V89c0,22.4-17.4,41.2-39.8,42.1c-14,0.5-26.6-6-34.5-16.2c-7.9,10.3-20.4,16.8-34.5,16.2
		c-22.3-0.9-39.8-19.7-39.8-42.1V57.5c0-4.9,4.1-8.8,9-8.5c4.5,0.3,8,4.2,8,8.8v31.4c0,13.6,11.1,25.1,24.7,24.9
		c11.2-0.2,20.6-7.9,23.2-18.3c0.7-3.6-2.3-5.4-4-6.2c0,0,0,0,0,0c-0.3-0.1-0.7-0.2-1-0.4c0,0,0,0,0,0c-3.7-1.6-6.2-5.3-6.2-9.6
		c0.1-5.6,4.9-10,10.6-10h19.8c5.6,0,10.5,4.4,10.6,10c0.1,4.3-2.5,8-6.2,9.6c0,0,0,0-0.1,0c-0.1,0-0.5,0.1-0.9,0.3c0,0,0,0,0,0
		c-1.7,0.7-4.8,2.6-4,6.2c2.6,10.4,12,18.2,23.2,18.3c13.6,0.2,24.7-11.3,24.7-24.9V57.8c0-4.5,3.4-8.5,7.9-8.8
		C170.8,48.7,174.9,52.6,174.9,57.5z"/>
	<circle cx="70.5" cy="34.8" r="10.2"/>
	<circle cx="130.9" cy="34.8" r="10.2"/>
</g>
</svg>
